<?xml version="1.0" encoding="UTF-8" standalone="no"?>
<!DOCTYPE svg PUBLIC "-//W3C//DTD SVG 1.1//EN" "http://www.w3.org/Graphics/SVG/1.1/DTD/svg11.dtd">
<svg width="100%" height="100%" viewBox="0 0 662 335" version="1.1" xmlns="http://www.w3.org/2000/svg" xmlns:xlink="http://www.w3.org/1999/xlink" xml:space="preserve" xmlns:serif="http://www.serif.com/" style="fill-rule:evenodd;clip-rule:evenodd;stroke-linejoin:round;stroke-miterlimit:2;">
    <g transform="matrix(1,0,0,1,-181.38573,-306.984141)">
        <g transform="matrix(0.84994,0,0,0.854615,76.83057,-17.160329)">
            <g transform="matrix(1.066289,0,0,1.054454,-554.287521,-501.760145)">
                <path d="M1154.41,1069.36C1206.07,1046.5 1259.69,1027.791 1314.01,1012.34C1271.75,1021.28 1230.42,1034.45 1190.22,1050.23C1150.13,1066.25 1111.05,1085.59 1075.84,1110.68C1085.21,1105.3 1094.21,1099.38 1103.83,1094.49C1119.77,1085.54 1137.83,1077.01 1154.41,1069.36ZM1151.5,1032.561C1127.75,1043.48 1104.73,1055.97 1083.15,1070.66C1090.1,1066.53 1096.83,1062.13 1103.92,1058.28C1115.88,1051.78 1129.33,1045.14 1141.74,1039.58C1193.9,1016.39 1248.25,998.152 1303.2,982.878C1264.29,990.855 1226.16,1002.52 1189.09,1016.75C1176.41,1021.61 1163.86,1026.89 1151.5,1032.561ZM1153.47,997.183C1138.85,1003.63 1124.51,1010.7 1110.62,1018.52C1116.68,1015.4 1123.1,1012.4 1129.07,1009.81C1181.98,986.865 1236.81,968.513 1292.39,953.412C1256.82,960.428 1221.94,970.715 1187.96,983.262C1176.34,987.554 1164.82,992.203 1153.47,997.183ZM1090.47,1030.63C1097.06,1026.39 1103.79,1022.37 1110.62,1018.52C1108.35,1019.69 1106.13,1020.88 1104.01,1022.07C1099.36,1024.681 1094.99,1027.75 1090.47,1030.63ZM1104.09,985.861C1101.88,987.233 1099.88,988.979 1097.78,990.607C1104.12,986.798 1110.59,983.193 1117.14,979.748C1116.9,979.844 1116.65,979.939 1116.4,980.036C1112.4,981.603 1107.75,983.597 1104.09,985.861ZM1155.44,961.806C1142.42,967.251 1129.61,973.195 1117.14,979.748C1171.14,958.605 1225.62,938.806 1281.58,923.946C1249.36,930.001 1217.75,938.968 1186.83,949.776C1176.27,953.516 1165.79,957.513 1155.44,961.806ZM1157.41,926.427C1143.1,931.982 1129.04,938.18 1115.41,945.138C1165.54,923.644 1218.03,908.168 1270.77,894.48C1241.9,899.574 1213.52,907.14 1185.71,916.291C1176.2,919.45 1166.74,922.802 1157.41,926.427ZM1105.1,950.582C1108.5,948.711 1111.94,946.906 1115.41,945.138C1111.76,946.702 1108.12,948.292 1104.5,949.922C1104.69,950.112 1104.91,950.36 1105.1,950.582ZM1103.73,950.261C1103.99,950.146 1104.25,950.037 1104.5,949.922C1104.37,949.787 1104.25,949.678 1104.18,949.65C1103.59,949.414 1103.83,949.537 1103.73,950.261ZM1159.37,891.049C1143.38,896.702 1128.13,904.27 1112.41,910.556C1109.73,911.626 1106.9,912.328 1104.27,913.44C1099.58,915.42 1095.33,917.668 1091.06,920.487C1145.19,895.942 1202.49,879.595 1259.96,865.014C1234.44,869.147 1209.3,875.312 1184.58,882.805C1176.12,885.384 1167.7,888.106 1159.37,891.049ZM1161.34,855.672C1132.68,864.657 1104.39,875.567 1078.4,890.713C1133.01,865.831 1191.05,849.956 1249.15,835.548C1219.39,839.806 1190.1,846.932 1161.34,855.672ZM900.255,1094.49C909.873,1099.38 918.871,1105.3 928.243,1110.68C893.036,1085.59 853.956,1066.25 813.864,1050.23C773.658,1034.45 732.336,1021.28 690.069,1012.34C744.398,1027.791 798.008,1046.5 849.672,1069.36C866.258,1077.02 884.303,1085.53 900.255,1094.49ZM901.05,1059.04C910.138,1063.75 918.868,1069.02 927.817,1074.02C894.145,1050.58 856.91,1032.53 818.677,1017.81C780.427,1003.08 741.063,991.036 700.881,982.878C752.509,997.327 803.68,1014.26 852.775,1035.791C868.706,1042.77 885.59,1051.02 901.05,1059.04ZM901.846,1023.59C910.505,1027.931 918.865,1032.74 927.391,1037.36C895.254,1015.58 859.816,998.928 823.489,985.379C787.147,971.823 749.79,960.79 711.692,953.412C760.62,966.862 809.17,982.431 855.878,1002.22C871.093,1008.67 887.059,1016.18 901.846,1023.59ZM902.641,988.136C910.872,992.101 918.861,996.452 926.965,1000.7C896.363,980.577 862.722,965.329 828.302,952.952C793.867,940.569 758.516,930.544 722.503,923.946C768.731,936.398 814.664,950.601 858.98,968.649C873.482,974.555 888.526,981.336 902.641,988.136ZM903.436,952.683C911.237,956.275 918.858,960.168 926.539,964.036C897.472,945.573 865.628,931.73 833.115,920.525C800.587,909.315 767.243,900.298 733.315,894.48C776.842,905.933 820.16,918.768 862.083,935.079C875.871,940.444 889.99,946.493 903.436,952.683ZM904.231,917.231C911.6,920.45 918.855,923.883 926.113,927.375C898.581,910.57 868.533,898.131 837.927,888.098C807.307,878.061 775.969,870.052 744.126,865.014C784.953,875.468 825.638,886.991 865.185,901.51C878.255,906.353 891.453,911.65 904.231,917.231ZM842.74,855.672C813.988,846.932 784.695,839.806 754.937,835.548C813.036,849.956 871.072,865.831 925.687,890.713C899.69,875.567 871.399,864.657 842.74,855.672ZM1129.86,1142.43C1119.95,1147.7 1109.4,1154.21 1099.6,1159.83L1089.75,1166.05C1084.27,1169.6 1075.49,1175.01 1070.29,1178.82L1060.82,1185.59C1051.23,1192.17 1042.41,1199.87 1033.49,1207.26C1046.459,1198.78 1059.35,1190.4 1072.75,1182.69C1164.37,1129.97 1268.21,1086.45 1364.8,1042.78C1283.67,1068.47 1204.72,1101.93 1129.86,1142.43ZM939.184,1185.59C948.768,1192.17 957.586,1199.87 966.507,1207.26C953.544,1198.78 940.646,1190.4 927.248,1182.69C835.739,1130.02 731.653,1086.38 635.196,1042.78C716.321,1068.47 795.285,1101.93 870.141,1142.43C882.824,1149.36 898.042,1158.26 910.247,1166.05C915.697,1169.59 924.5,1175 929.709,1178.82L939.184,1185.59Z" style="fill:rgb(255,223,176);fill-rule:nonzero;"/>
            </g>
        </g>
    </g>
</svg>
