<?xml version="1.0" encoding="UTF-8" standalone="no"?>
<!DOCTYPE svg PUBLIC "-//W3C//DTD SVG 1.1//EN" "http://www.w3.org/Graphics/SVG/1.1/DTD/svg11.dtd">
<svg width="100%" height="100%" viewBox="0 0 662 393" version="1.1" xmlns="http://www.w3.org/2000/svg" xmlns:xlink="http://www.w3.org/1999/xlink" xml:space="preserve" xmlns:serif="http://www.serif.com/" style="fill-rule:evenodd;clip-rule:evenodd;stroke-linejoin:round;stroke-miterlimit:2;">
    <g transform="matrix(1,0,0,1,-181.38573,-242.170555)">
        <g transform="matrix(0.84994,0,0,0.854615,76.83057,-17.160329)">
            <g transform="matrix(1.066289,0,0,1.054454,-554.287521,-501.760145)">
                <path d="M1016.88,1198.82C1092.48,1123.22 1364.8,1026.32 1364.8,1026.32L1278.7,763.625C1260.02,786.1 1222.95,793.689 1141.22,807.115C1059.5,820.542 1016.88,873.08 1016.88,873.08L1016.88,1198.82ZM983.117,1198.82C907.52,1123.22 635.196,1026.32 635.196,1026.32L721.3,763.625C739.981,786.1 777.049,793.689 858.776,807.115C940.502,820.542 983.117,873.08 983.117,873.08L983.117,1198.82Z" style="fill:white;fill-rule:nonzero;"/>
            </g>
        </g>
    </g>
</svg>
