<?xml version="1.0" encoding="UTF-8" standalone="no"?>
<!DOCTYPE svg PUBLIC "-//W3C//DTD SVG 1.1//EN" "http://www.w3.org/Graphics/SVG/1.1/DTD/svg11.dtd">
<svg width="100%" height="100%" viewBox="0 0 793 596" version="1.1" xmlns="http://www.w3.org/2000/svg" xmlns:xlink="http://www.w3.org/1999/xlink" xml:space="preserve" xmlns:serif="http://www.serif.com/" style="fill-rule:evenodd;clip-rule:evenodd;stroke-linejoin:round;stroke-miterlimit:2;">
    <g transform="matrix(1,0,0,1,-115.519012,-242.170555)">
        <g transform="matrix(0.84994,0,0,0.854615,76.83057,-17.160329)">
            <g transform="matrix(1.066289,0,0,1.054454,-554.287521,-501.760145)">
                <path d="M1351.23,1386.64C1356.49,1417.29 1331.09,1424.73 1331.09,1424.73L1031.88,1267.97C1024.189,1276.97 1012.77,1282.68 1000,1282.68C987.234,1282.68 975.809,1276.97 968.118,1267.97L668.908,1424.73C668.908,1424.73 643.514,1417.29 648.768,1386.64C654.022,1356 693.426,1336.73 706.998,1336.73C720.571,1336.73 733.267,1325.35 733.267,1325.35L857.608,1214.14L842.722,1208.01L769.607,1250.92C769.607,1250.92 754.283,1235.6 758.661,1221.58C763.039,1207.57 795.438,1184.81 795.438,1184.81L562.518,1072.73L659.714,763.625L698.242,763.625L606.591,1049.96L964.303,1218.75C971.689,1206.79 984.911,1198.82 1000,1198.82C1015.09,1198.82 1028.31,1206.79 1035.699,1218.75L1393.41,1049.96L1301.76,763.625L1340.29,763.625L1437.48,1072.73L1204.56,1184.81C1204.56,1184.81 1236.96,1207.57 1241.34,1221.58C1245.72,1235.6 1230.39,1250.92 1230.39,1250.92L1157.28,1208.01L1142.39,1214.14L1266.73,1325.35C1266.73,1325.35 1279.43,1336.73 1293,1336.73C1306.57,1336.73 1345.98,1356 1351.23,1386.64Z" style="fill:rgb(144,65,15);fill-rule:nonzero;"/>
            </g>
        </g>
    </g>
</svg>
